# xmcd
#
# Track frame offsets:
#	150
#	10899
#	22623
#	33594
#	46581
#	57052
#	66520
#	78779
#	89175
#	100032
#	111888
#	122167
#	135052
#	147760
#	157999
#	169543
#	179743
#	190303
#	201089
#	213494
#	225494
#	237578
#	247952
#	258776
#	268286
#
# Disc length: 3737 seconds
#
# Revision: 0
# Processed by: cddbd v1.5.2PL0 Copyright (c) Steve Scherf et al.
# Submitted via: audiograbber 1.83.01
#
DISCID=4e0e9719
DTITLE=Johnny Horton - The Early Years - CD4
DYEAR=1998
DGENRE=Country
TTITLE0=Plaid And Calico
TTITLE1=Coal Smoke, Valve Oil And Steam
TTITLE2=Devilish Love Light
TTITLE3=Done Rovin'
TTITLE4=Mean, Mean Son Of A Gun
TTITLE5=Talk Gobbler Talk (Old Gobbler, The Hound Dog)
TTITLE6=Shadows On The Old Bayou
TTITLE7=In My Home In Shelby County
TTITLE8=Go And Wash Your Dirty Feet (Barefoot Boy Blues)
TTITLE9=Smokey Joe's Barbecue
TTITLE10=It's A Long Rocky Road
TTITLE11=Words
TTITLE12=Done Rovin'
TTITLE13=It's A Long Rocky Road
TTITLE14=Smokey Joe's Barbecue
TTITLE15=Mean, Mean Son Of A Gun
TTITLE16=Devilish Love Light
TTITLE17=Coal Smoke, Valve Oil And Steam
TTITLE18=Words
TTITLE19=Shadows On The Old Bayou
TTITLE20=On The Banks Of The Beautiful Nile
TTITLE21=In My Home In Shelby County
TTITLE22=Go And Wash Your Dirty Feet (Barefoot Boy Blues)
TTITLE23=Talk Gobbler Talk (Old Gobbler, The Hound Dog)
TTITLE24=Ballad Of Johnny Horton
EXTD=
EXTT0=
EXTT1=
EXTT2=
EXTT3=
EXTT4=
EXTT5=
EXTT6=
EXTT7=
EXTT8=
EXTT9=
EXTT10=
EXTT11=
EXTT12=
EXTT13=
EXTT14=
EXTT15=
EXTT16=
EXTT17=
EXTT18=
EXTT19=
EXTT20=
EXTT21=
EXTT22=
EXTT23=
EXTT24=
PLAYORDER=
